#!OML:ASF H:\Terrain\Walking\May29\JustinRory\Justin.ASF
:FULLY-SPECIFIED
:DEGREES
337
root 8.3221 16.728 -16.1696 0.924577 -17.6017 3.59561
lowerback 13.9297 4.78731 3.43436
upperback 3.14172 6.69846 -1.80626
thorax -3.82671 3.27957 -4.92708
lowerneck -16.7565 -3.13177 -8.63897
upperneck 9.23542 -3.25469 7.5216
head 5.78702 -1.32552 3.4809
rclavicle -1.81888e-014 1.98785e-015
rhumerus -9.45881 4.12941 -36.2091
rradius 107.923
rwrist -27.0875
rhand -11.9834 37.7127
rfingers 7.12502
rthumb 14.073 8.20917
lclavicle -1.81888e-014 1.98785e-015
lhumerus -46.2546 10.9787 77.6104
lradius 117.234
lwrist 11.4625
lhand -9.60094 25.3246
lfingers 7.12502
lthumb 16.3679 54.654
rfemur -24.9571 2.86262 12.2438
rtibia 47.1938
rfoot -20.6007 -2.85654
rtoes -5.85612
lfemur -17.977 15.9222 -22.0509
ltibia 44.7405
lfoot -24.7399 7.36391
ltoes -16.3803
338
root 8.3358 16.7157 -16.1795 1.17082 -17.9311 3.37617
lowerback 13.8678 4.8183 3.80673
upperback 3.14071 6.78782 -1.86967
thorax -3.73256 3.32509 -5.2055
lowerneck -16.9314 -3.14663 -8.50681
upperneck 9.2889 -3.27412 7.38218
head 5.82922 -1.33747 3.41174
rclavicle 2.22639e-014 -3.18055e-015
rhumerus -8.15738 2.80183 -35.3143
rradius 106.443
rwrist -28.3773
rhand -12.2739 35.8033
rfingers 7.12502
rthumb 13.793 6.28059
lclavicle 2.22639e-014 -3.18055e-015
lhumerus -45.7591 11.0931 77.5283
lradius 117.369
lwrist 11.6983
lhand -9.11394 24.5657
lfingers 7.12502
lthumb 16.8368 53.8558
rfemur -25.3907 3.39992 12.4612
rtibia 47.5016
rfoot -20.8454 -3.269
rtoes -6.08039
lfemur -18.5059 16.1619 -21.9004
ltibia 45.3479
lfoot -25.0532 7.40688
ltoes -16.1386
339
root 8.34177 16.6942 -16.1992 1.66321 -18.1532 2.75076
lowerback 13.9362 4.81719 4.46667
upperback 2.86199 6.89042 -1.84844
thorax -3.9759 3.35652 -5.58965
lowerneck -15.8413 -3.14832 -7.57172
upperneck 8.26181 -3.39335 6.37699
head 5.3017 -1.45509 2.92532
rclavicle -4.29375e-014 -1.19271e-014
rhumerus -7.27813 1.56696 -34.808
rradius 104.921
rwrist -29.2524
rhand -12.7561 34.554
rfingers 7.12502
rthumb 13.3283 5.00025
lclavicle -4.29375e-014 -1.19271e-014
lhumerus -45.3887 10.9659 77.1369
lradius 117.597
lwrist 11.8059
lhand -8.51586 24.5143
lfingers 7.12502
lthumb 17.4124 53.7544
rfemur -25.9827 3.96212 13.1091
rtibia 47.7827
rfoot -21.0119 -3.6059
rtoes -5.49717
lfemur -19.2476 16.4215 -21.338
ltibia 45.8981
lfoot -25.177 7.40152
ltoes -16.5761
340
root 8.33196 16.6502 -16.2746 2.52354 -18.5138 1.74745
lowerback 14.3085 4.91816 5.10559
upperback 2.42074 7.14963 -1.7354
thorax -4.54978 3.4428 -5.9353
lowerneck -13.4452 -3.39877 -5.51745
upperneck 5.45788 -3.94644 4.10691
head 3.99308 -1.84408 1.86097
rclavicle -6.34123e-014 1.15295e-014
rhumerus -6.52371 0.121884 -34.7292
rradius 103.276
rwrist -29.7503
rhand -13.4779 33.9995
rfingers 7.12502
rthumb 12.6325 4.40151
lclavicle -6.34123e-014 1.15295e-014
lhumerus -44.8235 10.7934 76.4963
lradius 117.925
lwrist 11.8752
lhand -7.93255 24.4658
lfingers 7.12502
lthumb 17.9737 53.6553
rfemur -27.2708 5.12563 14.2458
rtibia 48.1808
rfoot -20.7856 -4.42088
rtoes -5.55418
lfemur -20.6708 16.9107 -20.3666
ltibia 46.5706
lfoot -25.0152 7.19153
ltoes -16.3986
341
root 8.33016 16.6458 -16.2301 1.80001 -17.9002 3.04941
lowerback 13.9416 4.79867 4.12856
upperback 2.76001 6.80995 -2.04178
thorax -4.11243 3.31283 -5.60235
lowerneck -15.2261 -3.29094 -6.43934
upperneck 7.67279 -3.71088 5.29515
head 4.99613 -1.65822 2.37348
rclavicle -3.23025e-014 1.82882e-014
rhumerus -5.78005 -1.46378 -34.6459
rradius 101.844
rwrist -30.3576
rhand -14.2041 33.9284
rfingers 7.12502
rthumb 11.9323 4.28843
lclavicle -3.23025e-014 1.82882e-014
lhumerus -43.9132 10.634 75.9084
lradius 118.157
lwrist 11.8434
lhand -8.01113 24.0599
lfingers 7.12502
lthumb 17.8981 53.2563
rfemur -26.6856 4.31894 12.8137
rtibia 48.5722
rfoot -21.3838 -4.27436
rtoes -6.58184
lfemur -20.1281 16.7866 -21.668
ltibia 46.8581
lfoot -25.8305 6.92278
ltoes -16.3134
342
root 8.3119 16.6188 -16.2387 1.63575 -17.2169 3.38323
lowerback 13.8241 4.54735 3.56433
upperback 2.87126 6.39491 -1.96806
thorax -4.05291 3.11681 -5.13132
lowerneck -16.5608 -3.03971 -7.34995
upperneck 9.41633 -3.30526 6.49083
head 5.77497 -1.38473 2.93436
rclavicle 5.61567e-014 -3.97569e-016
rhumerus -4.91984 -2.82285 -34.8242
rradius 100.578
rwrist -30.8127
rhand -15.8835 34.6492
rfingers 7.12502
rthumb 10.3125 4.92207
lclavicle 5.61567e-014 -3.97569e-016
lhumerus -42.7775 10.5761 75.0851
lradius 118.275
lwrist 11.6643
lhand -8.20843 23.8399
lfingers 7.12502
lthumb 17.7083 53.0536
rfemur -26.6972 3.97196 12.5187
rtibia 49.0428
rfoot -21.6735 -4.75667
rtoes -7.48751
lfemur -20.306 16.7386 -21.9191
ltibia 47.324
lfoot -26.3026 6.44463
ltoes -16.4504
343
root 8.28253 16.6014 -16.2807 1.80097 -15.9191 3.22545
lowerback 13.846 4.06776 3.24421
upperback 2.87188 5.72882 -1.71596
thorax -4.19562 2.78525 -4.59051
lowerneck -16.8511 -2.95172 -8.25865
upperneck 9.8061 -3.10382 7.42297
head 5.96291 -1.2445 3.40609
rclavicle -8.24956e-015 -2.3059e-014
rhumerus -4.11344 -4.13342 -35.2698
rradius 99.4428
rwrist -31.1347
rhand -16.4772 34.4123
rfingers 7.12502
rthumb 9.73981 4.6575
lclavicle -8.24956e-015 -2.3059e-014
lhumerus -41.645 10.715 73.8862
lradius 118.665
lwrist 11.672
lhand -7.90684 23.725
lfingers 7.12502
lthumb 17.9985 52.9122
rfemur -26.8446 3.41836 12.8208
rtibia 49.5124
rfoot -21.8776 -5.48048
rtoes -7.9465
lfemur -20.9443 16.3549 -21.6487
ltibia 47.7556
lfoot -26.0049 5.64696
ltoes -17.1133
344
root 8.24775 16.5781 -16.3238 2.09143 -14.5256 2.67124
lowerback 14.0402 3.62679 3.20516
upperback 2.76103 5.1699 -1.29064
thorax -4.51748 2.4981 -4.05746
lowerneck -16.9882 -2.98875 -8.10117
upperneck 10.0117 -3.13549 7.04923
head 6.04375 -1.2809 3.25635
rclavicle -5.59579e-014 2.34566e-014
rhumerus -3.93479 -5.45355 -35.7162
rradius 98.7683
rwrist -31.4428
rhand -17.7665 34.6198
rfingers 7.12502
rthumb 8.49564 4.81072
lclavicle -5.59579e-014 2.34566e-014
lhumerus -40.5081 10.739 72.6049
lradius 119.185
lwrist 11.8854
lhand -7.46979 23.7527
lfingers 7.12502
lthumb 18.4189 52.9007
rfemur -27.0333 2.91352 13.573
rtibia 50.0873
rfoot -22.1076 -6.36764
rtoes -8.94451
lfemur -21.8049 15.9413 -20.9544
ltibia 48.5209
lfoot -25.8242 4.81329
ltoes -17.6914
345
root 8.20626 16.5344 -16.3598 2.29813 -13.2033 2.3128
lowerback 14.2717 3.28355 2.90214
upperback 2.56413 4.70529 -0.869941
thorax -4.95473 2.25915 -3.39754
lowerneck -17.2984 -2.87234 -6.40995
upperneck 10.5186 -3.12452 5.33163
head 6.19762 -1.34124 2.42639
rclavicle -3.27001e-014 2.66371e-014
rhumerus -4.30494 -6.7961 -36.28
rradius 98.6811
rwrist -31.5993
rhand -19.5844 36.2637
rfingers 7.12502
rthumb 6.74104 6.39096
lclavicle -3.27001e-014 2.66371e-014
lhumerus -38.9697 10.5713 71.5442
lradius 119.385
lwrist 12.0688
lhand -7.07631 23.7369
lfingers 7.12502
lthumb 18.7974 52.8486
rfemur -27.3015 2.38719 14.1231
rtibia 50.744
rfoot -22.3335 -7.19151
rtoes -9.92877
lfemur -22.6386 15.5191 -20.4532
ltibia 49.4183
lfoot -26.0359 4.07579
ltoes -17.8365
346
root 8.16263 16.4929 -16.3901 2.42902 -11.5631 2.3576
lowerback 14.347 2.87683 2.26404
upperback 2.43937 4.09658 -0.542405
thorax -5.24374 1.96363 -2.60134
lowerneck -17.1335 -3.02458 -7.94252
upperneck 10.6845 -3.15355 6.4788
head 6.27052 -1.3283 3.04634
rclavicle 7.59357e-014 -1.55052e-014
rhumerus -4.88595 -8.34027 -37.035
rradius 98.8077
rwrist -31.5553
rhand -21.0197 37.1682
rfingers 7.12502
rthumb 5.35537 7.25584
lclavicle 7.59357e-014 -1.55052e-014
lhumerus -36.8633 10.525 70.7179
lradius 119.32
lwrist 12.2415
lhand -6.9512 23.6142
lfingers 7.12502
lthumb 18.9178 52.7143
rfemur -27.5489 1.39275 14.2074
rtibia 51.4173
rfoot -22.6871 -7.64505
rtoes -9.67958
lfemur -23.5144 14.789 -20.4041
ltibia 50.3543
lfoot -26.2442 3.29069
ltoes -18.0142
347
root 8.11017 16.4596 -16.4173 2.56407 -9.89575 1.85373
lowerback 14.4851 2.38195 2.06012
upperback 2.35345 3.44661 -0.0676741
thorax -5.48964 1.64603 -1.88173
lowerneck -17.118 -3.15159 -8.57577
upperneck 10.9601 -3.27673 7.07265
head 6.38724 -1.36706 3.33237
rclavicle -3.08116e-014 -1.11319e-014
rhumerus -5.53286 -9.84921 -37.995
rradius 99.1244
rwrist -31.0042
rhand -19.7898 36.7762
rfingers 7.12502
rthumb 6.54272 6.89726
lclavicle -3.08116e-014 -1.11319e-014
lhumerus -34.6207 10.7386 69.6782
lradius 119.13
lwrist 12.585
lhand -7.13971 23.8305
lfingers 7.12502
lthumb 18.7365 52.9482
rfemur -27.66 0.529376 14.9462
rtibia 52.0679
rfoot -23.1144 -8.27895
rtoes -9.38111
lfemur -24.3667 14.2626 -19.6868
ltibia 51.3485
lfoot -26.4288 2.21177
ltoes -17.5946
